<mxfile host="65bd71144e">
    <diagram id="y8ppHwSrMKtr4Omr1VL9" name="Page-1">
        <mxGraphModel dx="2390" dy="690" grid="1" gridSize="10" guides="1" tooltips="1" connect="1" arrows="1" fold="1" page="1" pageScale="1" pageWidth="850" pageHeight="1100" math="0" shadow="0">
            <root>
                <mxCell id="0"/>
                <mxCell id="1" parent="0"/>
                <mxCell id="160" value="+" style="whiteSpace=wrap;html=1;aspect=fixed;fillColor=#bac8d3;strokeColor=#23445d;" vertex="1" parent="1">
                    <mxGeometry x="10" y="90" width="1460" height="1460" as="geometry"/>
                </mxCell>
                <mxCell id="143" style="edgeStyle=none;html=1;exitX=0.5;exitY=0.5;exitDx=0;exitDy=0;exitPerimeter=0;" parent="1" source="73" target="76" edge="1">
                    <mxGeometry relative="1" as="geometry"/>
                </mxCell>
                <mxCell id="146" style="edgeStyle=none;html=1;exitX=0.5;exitY=0.5;exitDx=0;exitDy=0;exitPerimeter=0;" parent="1" source="73" target="78" edge="1">
                    <mxGeometry relative="1" as="geometry">
                        <Array as="points">
                            <mxPoint x="-120" y="400"/>
                            <mxPoint x="-110" y="400"/>
                            <mxPoint x="-130" y="400"/>
                            <mxPoint x="-120" y="680"/>
                            <mxPoint x="-120" y="960"/>
                            <mxPoint x="-120" y="1240"/>
                            <mxPoint x="-120" y="1560"/>
                            <mxPoint x="410" y="1560"/>
                        </Array>
                    </mxGeometry>
                </mxCell>
                <mxCell id="148" style="edgeStyle=none;html=1;exitX=0.5;exitY=0.5;exitDx=0;exitDy=0;exitPerimeter=0;" parent="1" source="73" target="121" edge="1">
                    <mxGeometry relative="1" as="geometry">
                        <Array as="points">
                            <mxPoint x="-130" y="400"/>
                            <mxPoint x="-120" y="740"/>
                            <mxPoint x="-120" y="1100"/>
                        </Array>
                    </mxGeometry>
                </mxCell>
                <mxCell id="73" value="Transporteur&lt;br&gt;" style="shape=umlActor;verticalLabelPosition=bottom;verticalAlign=top;html=1;outlineConnect=0;" parent="1" vertex="1">
                    <mxGeometry x="-50" y="360" width="30" height="60" as="geometry"/>
                </mxCell>
                <mxCell id="95" style="edgeStyle=none;html=1;exitX=0.5;exitY=0.5;exitDx=0;exitDy=0;exitPerimeter=0;" parent="1" source="74" target="77" edge="1">
                    <mxGeometry relative="1" as="geometry"/>
                </mxCell>
                <mxCell id="74" value="Receveur&lt;br&gt;&lt;br&gt;" style="shape=umlActor;verticalLabelPosition=bottom;verticalAlign=top;html=1;outlineConnect=0;" parent="1" vertex="1">
                    <mxGeometry x="-50" y="1210" width="30" height="60" as="geometry"/>
                </mxCell>
                <mxCell id="76" value="Creer Un Salon" style="ellipse;whiteSpace=wrap;html=1;" parent="1" vertex="1">
                    <mxGeometry x="240" y="454" width="140" height="70" as="geometry"/>
                </mxCell>
                <mxCell id="77" value="Recevoir le&amp;nbsp; colis&lt;br&gt;" style="ellipse;whiteSpace=wrap;html=1;" parent="1" vertex="1">
                    <mxGeometry x="205" y="1270" width="140" height="70" as="geometry"/>
                </mxCell>
                <mxCell id="78" value="Valider le code secret donné par le receveur&lt;br&gt;" style="ellipse;whiteSpace=wrap;html=1;" parent="1" vertex="1">
                    <mxGeometry x="340" y="1360" width="140" height="70" as="geometry"/>
                </mxCell>
                <mxCell id="79" value="Valider la reception&lt;br&gt;" style="ellipse;whiteSpace=wrap;html=1;" parent="1" vertex="1">
                    <mxGeometry x="100" y="1370" width="140" height="70" as="geometry"/>
                </mxCell>
                <mxCell id="97" value="&amp;lt;&amp;lt;extend&amp;gt;&amp;gt;" style="html=1;verticalAlign=bottom;labelBackgroundColor=none;endArrow=open;endFill=0;dashed=1;" parent="1" source="79" target="77" edge="1">
                    <mxGeometry width="160" relative="1" as="geometry">
                        <mxPoint x="350" y="950" as="sourcePoint"/>
                        <mxPoint x="510" y="950" as="targetPoint"/>
                    </mxGeometry>
                </mxCell>
                <mxCell id="98" value="&amp;lt;&amp;lt;extend&amp;gt;&amp;gt;" style="html=1;verticalAlign=bottom;labelBackgroundColor=none;endArrow=open;endFill=0;dashed=1;entryX=1;entryY=1;entryDx=0;entryDy=0;" parent="1" source="78" target="77" edge="1">
                    <mxGeometry width="160" relative="1" as="geometry">
                        <mxPoint x="194.9477092772197" y="1032.2982729744554" as="sourcePoint"/>
                        <mxPoint x="244.87146444837913" y="967.6670962171074" as="targetPoint"/>
                    </mxGeometry>
                </mxCell>
                <mxCell id="99" value="Definir le prix/Kg&lt;br&gt;" style="ellipse;whiteSpace=wrap;html=1;" parent="1" vertex="1">
                    <mxGeometry x="191" y="310" width="140" height="70" as="geometry"/>
                </mxCell>
                <mxCell id="100" value="" style="edgeStyle=none;html=1;endSize=12;endArrow=block;endFill=0;" parent="1" edge="1">
                    <mxGeometry width="160" relative="1" as="geometry">
                        <mxPoint x="-35.5" y="544" as="sourcePoint"/>
                        <mxPoint x="-35.5" y="454" as="targetPoint"/>
                    </mxGeometry>
                </mxCell>
                <mxCell id="101" value="Definir Date/Heure de vol" style="ellipse;whiteSpace=wrap;html=1;" parent="1" vertex="1">
                    <mxGeometry x="20" y="330" width="150" height="70" as="geometry"/>
                </mxCell>
                <mxCell id="102" value="Scanner Le Billet&lt;br&gt;" style="ellipse;whiteSpace=wrap;html=1;" parent="1" vertex="1">
                    <mxGeometry x="560" y="270" width="140" height="70" as="geometry"/>
                </mxCell>
                <mxCell id="103" value="Scanner Documents&amp;nbsp; identités" style="ellipse;whiteSpace=wrap;html=1;" parent="1" vertex="1">
                    <mxGeometry x="340" y="290" width="110" height="70" as="geometry"/>
                </mxCell>
                <mxCell id="104" value="Valider Le Salon" style="ellipse;whiteSpace=wrap;html=1;" parent="1" vertex="1">
                    <mxGeometry x="1080" y="454" width="140" height="70" as="geometry"/>
                </mxCell>
                <mxCell id="167" value="" style="edgeStyle=none;html=1;" edge="1" parent="1" source="105" target="123">
                    <mxGeometry relative="1" as="geometry"/>
                </mxCell>
                <mxCell id="105" value="Verifier Les Documents" style="ellipse;whiteSpace=wrap;html=1;" parent="1" vertex="1">
                    <mxGeometry x="890" y="600" width="140" height="70" as="geometry"/>
                </mxCell>
                <mxCell id="106" value="&amp;lt;&amp;lt;include&amp;gt;&amp;gt;" style="html=1;verticalAlign=bottom;labelBackgroundColor=none;endArrow=open;endFill=0;dashed=1;" parent="1" source="76" target="101" edge="1">
                    <mxGeometry width="160" relative="1" as="geometry">
                        <mxPoint x="350" y="690" as="sourcePoint"/>
                        <mxPoint x="510" y="690" as="targetPoint"/>
                    </mxGeometry>
                </mxCell>
                <mxCell id="107" value="&amp;lt;&amp;lt;include&amp;gt;&amp;gt;" style="html=1;verticalAlign=bottom;labelBackgroundColor=none;endArrow=open;endFill=0;dashed=1;" parent="1" source="76" target="103" edge="1">
                    <mxGeometry width="160" relative="1" as="geometry">
                        <mxPoint x="330" y="590" as="sourcePoint"/>
                        <mxPoint x="510" y="690" as="targetPoint"/>
                    </mxGeometry>
                </mxCell>
                <mxCell id="108" value="&amp;lt;&amp;lt;include&amp;gt;&amp;gt;" style="html=1;verticalAlign=bottom;labelBackgroundColor=none;endArrow=open;endFill=0;dashed=1;exitX=0.929;exitY=0.243;exitDx=0;exitDy=0;exitPerimeter=0;" parent="1" source="76" target="102" edge="1">
                    <mxGeometry width="160" relative="1" as="geometry">
                        <mxPoint x="350" y="690" as="sourcePoint"/>
                        <mxPoint x="510" y="690" as="targetPoint"/>
                    </mxGeometry>
                </mxCell>
                <mxCell id="109" value="&amp;lt;&amp;lt;include&amp;gt;&amp;gt;" style="html=1;verticalAlign=bottom;labelBackgroundColor=none;endArrow=open;endFill=0;dashed=1;exitX=0.994;exitY=0.629;exitDx=0;exitDy=0;exitPerimeter=0;" parent="1" source="76" target="104" edge="1">
                    <mxGeometry width="160" relative="1" as="geometry">
                        <mxPoint x="380" y="610" as="sourcePoint"/>
                        <mxPoint x="540" y="610" as="targetPoint"/>
                    </mxGeometry>
                </mxCell>
                <mxCell id="110" value="&amp;lt;&amp;lt;include&amp;gt;&amp;gt;" style="html=1;verticalAlign=bottom;labelBackgroundColor=none;endArrow=open;endFill=0;dashed=1;" parent="1" source="104" target="105" edge="1">
                    <mxGeometry width="160" relative="1" as="geometry">
                        <mxPoint x="380" y="710" as="sourcePoint"/>
                        <mxPoint x="540" y="710" as="targetPoint"/>
                    </mxGeometry>
                </mxCell>
                <mxCell id="111" value="&amp;lt;&amp;lt;extend&amp;gt;&amp;gt;" style="html=1;verticalAlign=bottom;labelBackgroundColor=none;endArrow=open;endFill=0;dashed=1;exitX=0.5;exitY=1;exitDx=0;exitDy=0;entryX=0.5;entryY=0;entryDx=0;entryDy=0;" parent="1" source="99" target="76" edge="1">
                    <mxGeometry width="160" relative="1" as="geometry">
                        <mxPoint x="350" y="690" as="sourcePoint"/>
                        <mxPoint x="510" y="690" as="targetPoint"/>
                    </mxGeometry>
                </mxCell>
                <mxCell id="112" value="Selectionner Un Salon&lt;br&gt;" style="ellipse;whiteSpace=wrap;html=1;" parent="1" vertex="1">
                    <mxGeometry x="300" y="560" width="140" height="70" as="geometry"/>
                </mxCell>
                <mxCell id="115" value="Contacter Directement Le Transporteur" style="ellipse;whiteSpace=wrap;html=1;" parent="1" vertex="1">
                    <mxGeometry x="150" y="670" width="140" height="70" as="geometry"/>
                </mxCell>
                <mxCell id="117" value="Effectuer Le Paiement" style="ellipse;whiteSpace=wrap;html=1;" parent="1" vertex="1">
                    <mxGeometry x="450" y="1170" width="140" height="70" as="geometry"/>
                </mxCell>
                <mxCell id="118" value="Rencontre au point de Rendez-vous" style="ellipse;whiteSpace=wrap;html=1;" parent="1" vertex="1">
                    <mxGeometry x="300" y="940" width="140" height="70" as="geometry"/>
                </mxCell>
                <mxCell id="119" value="Envoyer Le Livreur" style="ellipse;whiteSpace=wrap;html=1;" parent="1" vertex="1">
                    <mxGeometry x="540" y="940" width="140" height="70" as="geometry"/>
                </mxCell>
                <mxCell id="120" value="Contacter le Transporteur&lt;br&gt;" style="ellipse;whiteSpace=wrap;html=1;" parent="1" vertex="1">
                    <mxGeometry x="400" y="840" width="160" height="70" as="geometry"/>
                </mxCell>
                <mxCell id="121" value="Confirmer La Reception" style="ellipse;whiteSpace=wrap;html=1;" parent="1" vertex="1">
                    <mxGeometry x="425" y="1045" width="140" height="70" as="geometry"/>
                </mxCell>
                <mxCell id="122" value="Saisir Les Informations Du Receveur&lt;br&gt;" style="ellipse;whiteSpace=wrap;html=1;" parent="1" vertex="1">
                    <mxGeometry x="345" y="720" width="140" height="70" as="geometry"/>
                </mxCell>
                <mxCell id="123" value="Suivi avec GP Tracker" style="ellipse;whiteSpace=wrap;html=1;" parent="1" vertex="1">
                    <mxGeometry x="520" y="640" width="140" height="70" as="geometry"/>
                </mxCell>
                <mxCell id="125" value="Envoyer Le Code Secret A L'Expediteur" style="ellipse;whiteSpace=wrap;html=1;" parent="1" vertex="1">
                    <mxGeometry x="660" y="1130" width="140" height="70" as="geometry"/>
                </mxCell>
                <mxCell id="126" value="&amp;lt;&amp;lt;extend&amp;gt;&amp;gt;" style="html=1;verticalAlign=bottom;labelBackgroundColor=none;endArrow=open;endFill=0;dashed=1;" parent="1" source="115" target="112" edge="1">
                    <mxGeometry width="160" relative="1" as="geometry">
                        <mxPoint x="350" y="630" as="sourcePoint"/>
                        <mxPoint x="510" y="630" as="targetPoint"/>
                    </mxGeometry>
                </mxCell>
                <mxCell id="127" value="&amp;lt;&amp;lt;extend&amp;gt;&amp;gt;" style="html=1;verticalAlign=bottom;labelBackgroundColor=none;endArrow=open;endFill=0;dashed=1;" parent="1" source="123" target="112" edge="1">
                    <mxGeometry width="160" relative="1" as="geometry">
                        <mxPoint x="350" y="630" as="sourcePoint"/>
                        <mxPoint x="510" y="630" as="targetPoint"/>
                    </mxGeometry>
                </mxCell>
                <mxCell id="128" value="&amp;lt;&amp;lt;include&amp;gt;&amp;gt;" style="html=1;verticalAlign=bottom;labelBackgroundColor=none;endArrow=open;endFill=0;dashed=1;" parent="1" source="123" target="122" edge="1">
                    <mxGeometry width="160" relative="1" as="geometry">
                        <mxPoint x="350" y="630" as="sourcePoint"/>
                        <mxPoint x="510" y="630" as="targetPoint"/>
                    </mxGeometry>
                </mxCell>
                <mxCell id="131" value="&amp;lt;&amp;lt;include&amp;gt;&amp;gt;" style="html=1;verticalAlign=bottom;labelBackgroundColor=none;endArrow=open;endFill=0;dashed=1;" parent="1" source="122" target="120" edge="1">
                    <mxGeometry width="160" relative="1" as="geometry">
                        <mxPoint x="350" y="630" as="sourcePoint"/>
                        <mxPoint x="510" y="630" as="targetPoint"/>
                    </mxGeometry>
                </mxCell>
                <mxCell id="132" value="&amp;lt;&amp;lt;extend&amp;gt;&amp;gt;" style="html=1;verticalAlign=bottom;labelBackgroundColor=none;endArrow=open;endFill=0;dashed=1;" parent="1" source="118" target="120" edge="1">
                    <mxGeometry width="160" relative="1" as="geometry">
                        <mxPoint x="350" y="940" as="sourcePoint"/>
                        <mxPoint x="510" y="940" as="targetPoint"/>
                    </mxGeometry>
                </mxCell>
                <mxCell id="133" value="&amp;lt;&amp;lt;extend&amp;gt;&amp;gt;" style="html=1;verticalAlign=bottom;labelBackgroundColor=none;endArrow=open;endFill=0;dashed=1;" parent="1" source="119" target="120" edge="1">
                    <mxGeometry width="160" relative="1" as="geometry">
                        <mxPoint x="350" y="940" as="sourcePoint"/>
                        <mxPoint x="510" y="940" as="targetPoint"/>
                    </mxGeometry>
                </mxCell>
                <mxCell id="134" value="&amp;lt;&amp;lt;include&amp;gt;&amp;gt;" style="html=1;verticalAlign=bottom;labelBackgroundColor=none;endArrow=open;endFill=0;dashed=1;" parent="1" source="118" target="121" edge="1">
                    <mxGeometry width="160" relative="1" as="geometry">
                        <mxPoint x="350" y="940" as="sourcePoint"/>
                        <mxPoint x="510" y="940" as="targetPoint"/>
                    </mxGeometry>
                </mxCell>
                <mxCell id="135" value="&amp;lt;&amp;lt;include&amp;gt;&amp;gt;" style="html=1;verticalAlign=bottom;labelBackgroundColor=none;endArrow=open;endFill=0;dashed=1;entryX=1;entryY=0;entryDx=0;entryDy=0;" parent="1" source="119" target="121" edge="1">
                    <mxGeometry width="160" relative="1" as="geometry">
                        <mxPoint x="460" y="1030" as="sourcePoint"/>
                        <mxPoint x="620" y="1030" as="targetPoint"/>
                    </mxGeometry>
                </mxCell>
                <mxCell id="136" value="&amp;lt;&amp;lt;include&amp;gt;&amp;gt;" style="html=1;verticalAlign=bottom;labelBackgroundColor=none;endArrow=open;endFill=0;dashed=1;" parent="1" source="121" target="117" edge="1">
                    <mxGeometry width="160" relative="1" as="geometry">
                        <mxPoint x="350" y="1110" as="sourcePoint"/>
                        <mxPoint x="510" y="1110" as="targetPoint"/>
                    </mxGeometry>
                </mxCell>
                <mxCell id="137" value="&amp;lt;&amp;lt;include&amp;gt;&amp;gt;" style="html=1;verticalAlign=bottom;labelBackgroundColor=none;endArrow=open;endFill=0;dashed=1;" parent="1" source="117" target="125" edge="1">
                    <mxGeometry width="160" relative="1" as="geometry">
                        <mxPoint x="570" y="1180" as="sourcePoint"/>
                        <mxPoint x="700" y="1180" as="targetPoint"/>
                    </mxGeometry>
                </mxCell>
                <mxCell id="144" style="edgeStyle=none;html=1;exitX=0.5;exitY=0.5;exitDx=0;exitDy=0;exitPerimeter=0;" parent="1" source="138" target="104" edge="1">
                    <mxGeometry relative="1" as="geometry"/>
                </mxCell>
                <mxCell id="149" style="edgeStyle=none;jumpSize=20;html=1;entryX=1;entryY=0;entryDx=0;entryDy=0;rounded=1;endArrow=none;endFill=0;" edge="1" parent="1" source="138" target="104">
                    <mxGeometry relative="1" as="geometry"/>
                </mxCell>
                <mxCell id="154" style="edgeStyle=none;html=1;exitX=0.5;exitY=0.5;exitDx=0;exitDy=0;exitPerimeter=0;" edge="1" parent="1" source="138" target="151">
                    <mxGeometry relative="1" as="geometry"/>
                </mxCell>
                <mxCell id="138" value="Systeme&lt;br&gt;" style="shape=umlActor;verticalLabelPosition=bottom;verticalAlign=top;html=1;outlineConnect=0;" parent="1" vertex="1">
                    <mxGeometry x="1480" y="335" width="30" height="60" as="geometry"/>
                </mxCell>
                <mxCell id="151" value="Definr des moderateurs" style="ellipse;whiteSpace=wrap;html=1;" vertex="1" parent="1">
                    <mxGeometry x="1280" y="565" width="140" height="70" as="geometry"/>
                </mxCell>
                <mxCell id="155" value="&amp;lt;&amp;lt;include&amp;gt;&amp;gt;" style="edgeStyle=none;html=1;endArrow=open;verticalAlign=bottom;dashed=1;labelBackgroundColor=none;exitX=0;exitY=1;exitDx=0;exitDy=0;" edge="1" parent="1" source="151" target="105">
                    <mxGeometry width="160" relative="1" as="geometry">
                        <mxPoint x="780" y="740" as="sourcePoint"/>
                        <mxPoint x="940" y="740" as="targetPoint"/>
                    </mxGeometry>
                </mxCell>
                <mxCell id="156" value="&amp;lt;&amp;lt;include&amp;gt;&amp;gt;" style="edgeStyle=none;html=1;endArrow=open;verticalAlign=bottom;dashed=1;labelBackgroundColor=none;entryX=1;entryY=1;entryDx=0;entryDy=0;" edge="1" parent="1" source="151" target="104">
                    <mxGeometry width="160" relative="1" as="geometry">
                        <mxPoint x="880" y="522.33" as="sourcePoint"/>
                        <mxPoint x="1040" y="522.33" as="targetPoint"/>
                    </mxGeometry>
                </mxCell>
                <mxCell id="157" value="Support de client&lt;br&gt;&amp;nbsp;" style="ellipse;whiteSpace=wrap;html=1;" vertex="1" parent="1">
                    <mxGeometry x="1220" y="710" width="140" height="70" as="geometry"/>
                </mxCell>
                <mxCell id="158" value="&amp;lt;&amp;lt;extend&amp;gt;&amp;gt;" style="edgeStyle=none;html=1;startArrow=open;endArrow=none;startSize=12;verticalAlign=bottom;dashed=1;labelBackgroundColor=none;" edge="1" parent="1" source="151" target="157">
                    <mxGeometry width="160" relative="1" as="geometry">
                        <mxPoint x="1000" y="710" as="sourcePoint"/>
                        <mxPoint x="1160" y="710" as="targetPoint"/>
                    </mxGeometry>
                </mxCell>
                <mxCell id="165" value="Produits acceptés&lt;br&gt;" style="ellipse;whiteSpace=wrap;html=1;" vertex="1" parent="1">
                    <mxGeometry x="860" y="310" width="140" height="70" as="geometry"/>
                </mxCell>
                <mxCell id="166" value="&amp;lt;&amp;lt;include&amp;gt;&amp;gt;" style="edgeStyle=none;html=1;endArrow=open;verticalAlign=bottom;dashed=1;labelBackgroundColor=none;" edge="1" parent="1" source="76" target="165">
                    <mxGeometry width="160" relative="1" as="geometry">
                        <mxPoint x="550" y="440" as="sourcePoint"/>
                        <mxPoint x="710" y="440" as="targetPoint"/>
                    </mxGeometry>
                </mxCell>
                <mxCell id="168" value="Proposer des services additionnels&lt;br&gt;" style="ellipse;whiteSpace=wrap;html=1;" vertex="1" parent="1">
                    <mxGeometry x="940" y="390" width="140" height="70" as="geometry"/>
                </mxCell>
                <mxCell id="173" value="&amp;lt;&amp;lt;extend&amp;gt;&amp;gt;" style="edgeStyle=none;html=1;startArrow=open;endArrow=none;startSize=12;verticalAlign=bottom;dashed=1;labelBackgroundColor=none;exitX=1;exitY=0.5;exitDx=0;exitDy=0;" edge="1" parent="1" source="76" target="168">
                    <mxGeometry width="160" relative="1" as="geometry">
                        <mxPoint x="390" y="660" as="sourcePoint"/>
                        <mxPoint x="550" y="660" as="targetPoint"/>
                    </mxGeometry>
                </mxCell>
                <mxCell id="174" value="definir le lieu de depart&lt;br&gt;" style="ellipse;whiteSpace=wrap;html=1;" vertex="1" parent="1">
                    <mxGeometry x="125" y="140" width="90" height="70" as="geometry"/>
                </mxCell>
                <mxCell id="175" value="Definir destination intermediaire&lt;br&gt;" style="ellipse;whiteSpace=wrap;html=1;" vertex="1" parent="1">
                    <mxGeometry x="710" y="290" width="140" height="70" as="geometry"/>
                </mxCell>
                <mxCell id="176" value="definir le lieu d'arrivé&lt;br&gt;" style="ellipse;whiteSpace=wrap;html=1;" vertex="1" parent="1">
                    <mxGeometry x="335" y="110" width="120" height="70" as="geometry"/>
                </mxCell>
                <mxCell id="177" value="Definir la date de depart&lt;br&gt;" style="ellipse;whiteSpace=wrap;html=1;" vertex="1" parent="1">
                    <mxGeometry x="10" y="150" width="100" height="70" as="geometry"/>
                </mxCell>
                <mxCell id="178" value="Definir la date d'arrrivé" style="ellipse;whiteSpace=wrap;html=1;" vertex="1" parent="1">
                    <mxGeometry x="225" y="140" width="100" height="70" as="geometry"/>
                </mxCell>
                <mxCell id="179" value="Saisir la destination&amp;nbsp;" style="ellipse;whiteSpace=wrap;html=1;" vertex="1" parent="1">
                    <mxGeometry x="800" y="140" width="140" height="70" as="geometry"/>
                </mxCell>
                <mxCell id="180" value="definir la devise&lt;br&gt;" style="ellipse;whiteSpace=wrap;html=1;" vertex="1" parent="1">
                    <mxGeometry x="460" y="280" width="100" height="70" as="geometry"/>
                </mxCell>
                <mxCell id="181" value="Paiement par CB" style="ellipse;whiteSpace=wrap;html=1;" vertex="1" parent="1">
                    <mxGeometry x="450" y="1290" width="140" height="70" as="geometry"/>
                </mxCell>
                <mxCell id="182" value="Paiement par OM/Wave...&amp;nbsp;" style="ellipse;whiteSpace=wrap;html=1;" vertex="1" parent="1">
                    <mxGeometry x="600" y="1290" width="140" height="70" as="geometry"/>
                </mxCell>
                <mxCell id="188" style="edgeStyle=none;html=1;exitX=0.5;exitY=0.5;exitDx=0;exitDy=0;exitPerimeter=0;" edge="1" parent="1" source="187" target="112">
                    <mxGeometry relative="1" as="geometry"/>
                </mxCell>
                <mxCell id="187" value="Expediteur" style="shape=umlActor;html=1;verticalLabelPosition=bottom;verticalAlign=top;align=center;" vertex="1" parent="1">
                    <mxGeometry x="-60" y="600" width="30" height="60" as="geometry"/>
                </mxCell>
                <mxCell id="191" value="&amp;lt;&amp;lt;include&amp;gt;&amp;gt;" style="edgeStyle=none;html=1;endArrow=open;verticalAlign=bottom;dashed=1;labelBackgroundColor=none;" edge="1" parent="1" source="101" target="177">
                    <mxGeometry width="160" relative="1" as="geometry">
                        <mxPoint x="180" y="340" as="sourcePoint"/>
                        <mxPoint x="340" y="340" as="targetPoint"/>
                    </mxGeometry>
                </mxCell>
                <mxCell id="192" value="&amp;lt;&amp;lt;include&amp;gt;&amp;gt;" style="edgeStyle=none;html=1;endArrow=open;verticalAlign=bottom;dashed=1;labelBackgroundColor=none;exitX=0.626;exitY=-0.026;exitDx=0;exitDy=0;exitPerimeter=0;" edge="1" parent="1" source="101" target="174">
                    <mxGeometry width="160" relative="1" as="geometry">
                        <mxPoint x="97.55602303030628" y="340.17282203464504" as="sourcePoint"/>
                        <mxPoint x="77.41702264647097" y="249.61277235019702" as="targetPoint"/>
                    </mxGeometry>
                </mxCell>
                <mxCell id="193" value="&amp;lt;&amp;lt;include&amp;gt;&amp;gt;" style="edgeStyle=none;html=1;endArrow=open;verticalAlign=bottom;dashed=1;labelBackgroundColor=none;" edge="1" parent="1" target="178">
                    <mxGeometry width="160" relative="1" as="geometry">
                        <mxPoint x="140" y="330" as="sourcePoint"/>
                        <mxPoint x="87.41702264647097" y="259.612772350197" as="targetPoint"/>
                    </mxGeometry>
                </mxCell>
                <mxCell id="194" value="&amp;lt;&amp;lt;include&amp;gt;&amp;gt;" style="edgeStyle=none;html=1;endArrow=open;verticalAlign=bottom;dashed=1;labelBackgroundColor=none;exitX=0.906;exitY=0.157;exitDx=0;exitDy=0;exitPerimeter=0;" edge="1" parent="1" source="101" target="176">
                    <mxGeometry width="160" relative="1" as="geometry">
                        <mxPoint x="117.55602303030628" y="360.17282203464504" as="sourcePoint"/>
                        <mxPoint x="97.41702264647097" y="269.612772350197" as="targetPoint"/>
                    </mxGeometry>
                </mxCell>
                <mxCell id="195" value="&amp;lt;&amp;lt;include&amp;gt;&amp;gt;" style="edgeStyle=none;html=1;endArrow=open;verticalAlign=bottom;dashed=1;labelBackgroundColor=none;" edge="1" parent="1" source="76" target="180">
                    <mxGeometry width="160" relative="1" as="geometry">
                        <mxPoint x="127.55602303030628" y="370.17282203464504" as="sourcePoint"/>
                        <mxPoint x="107.41702264647097" y="279.612772350197" as="targetPoint"/>
                    </mxGeometry>
                </mxCell>
                <mxCell id="196" value="&amp;lt;&amp;lt;extend&amp;gt;&amp;gt;" style="edgeStyle=none;html=1;startArrow=open;endArrow=none;startSize=12;verticalAlign=bottom;dashed=1;labelBackgroundColor=none;" edge="1" parent="1" source="76" target="175">
                    <mxGeometry width="160" relative="1" as="geometry">
                        <mxPoint x="410" y="340" as="sourcePoint"/>
                        <mxPoint x="570" y="340" as="targetPoint"/>
                    </mxGeometry>
                </mxCell>
                <mxCell id="197" value="&amp;lt;&amp;lt;include&amp;gt;&amp;gt;" style="edgeStyle=none;html=1;endArrow=open;verticalAlign=bottom;dashed=1;labelBackgroundColor=none;" edge="1" parent="1" source="175" target="179">
                    <mxGeometry width="160" relative="1" as="geometry">
                        <mxPoint x="410" y="340" as="sourcePoint"/>
                        <mxPoint x="570" y="340" as="targetPoint"/>
                    </mxGeometry>
                </mxCell>
                <mxCell id="198" value="&amp;lt;&amp;lt;extend&amp;gt;&amp;gt;" style="edgeStyle=none;html=1;startArrow=open;endArrow=none;startSize=12;verticalAlign=bottom;dashed=1;labelBackgroundColor=none;" edge="1" parent="1" target="181">
                    <mxGeometry width="160" relative="1" as="geometry">
                        <mxPoint x="520" y="1230" as="sourcePoint"/>
                        <mxPoint x="690" y="1170" as="targetPoint"/>
                    </mxGeometry>
                </mxCell>
                <mxCell id="199" value="&amp;lt;&amp;lt;extend&amp;gt;&amp;gt;" style="edgeStyle=none;html=1;startArrow=open;endArrow=none;startSize=12;verticalAlign=bottom;dashed=1;labelBackgroundColor=none;" edge="1" parent="1" source="117" target="182">
                    <mxGeometry width="160" relative="1" as="geometry">
                        <mxPoint x="530" y="1170" as="sourcePoint"/>
                        <mxPoint x="690" y="1170" as="targetPoint"/>
                    </mxGeometry>
                </mxCell>
                <mxCell id="200" value="definir le Kg disponible&lt;br&gt;" style="ellipse;whiteSpace=wrap;html=1;" vertex="1" parent="1">
                    <mxGeometry x="345" y="200" width="140" height="70" as="geometry"/>
                </mxCell>
                <mxCell id="201" value="&amp;lt;&amp;lt;include&amp;gt;&amp;gt;" style="edgeStyle=none;html=1;endArrow=open;verticalAlign=bottom;dashed=1;labelBackgroundColor=none;" edge="1" parent="1" source="99" target="200">
                    <mxGeometry width="160" relative="1" as="geometry">
                        <mxPoint x="440" y="390" as="sourcePoint"/>
                        <mxPoint x="600" y="390" as="targetPoint"/>
                    </mxGeometry>
                </mxCell>
            </root>
        </mxGraphModel>
    </diagram>
</mxfile>